<svg width="97" height="19" viewBox="0 0 97 19" fill="none" xmlns="http://www.w3.org/2000/svg">
<path d="M8.65797 18.288C6.96197 18.288 5.50597 17.928 4.28997 17.208C3.07397 16.472 2.13797 15.456 1.48197 14.16C0.825969 12.848 0.497969 11.336 0.497969 9.624C0.497969 7.912 0.825969 6.4 1.48197 5.088C2.13797 3.776 3.07397 2.752 4.28997 2.016C5.50597 1.28 6.96197 0.912 8.65797 0.912C10.674 0.912 12.322 1.416 13.602 2.424C14.898 3.416 15.706 4.816 16.026 6.624H12.642C12.434 5.712 11.986 5 11.298 4.488C10.626 3.96 9.72997 3.696 8.60997 3.696C7.05797 3.696 5.84197 4.224 4.96197 5.28C4.08197 6.336 3.64197 7.784 3.64197 9.624C3.64197 11.464 4.08197 12.912 4.96197 13.968C5.84197 15.008 7.05797 15.528 8.60997 15.528C9.72997 15.528 10.626 15.288 11.298 14.808C11.986 14.312 12.434 13.632 12.642 12.768H16.026C15.706 14.496 14.898 15.848 13.602 16.824C12.322 17.8 10.674 18.288 8.65797 18.288ZM24.3853 18.288C23.2333 18.288 22.1933 18.024 21.2653 17.496C20.3533 16.968 19.6253 16.24 19.0813 15.312C18.5533 14.368 18.2893 13.28 18.2893 12.048C18.2893 10.816 18.5613 9.736 19.1053 8.808C19.6493 7.864 20.3773 7.128 21.2893 6.6C22.2173 6.072 23.2573 5.808 24.4093 5.808C25.5453 5.808 26.5693 6.072 27.4813 6.6C28.4093 7.128 29.1373 7.864 29.6653 8.808C30.2093 9.736 30.4813 10.816 30.4813 12.048C30.4813 13.28 30.2093 14.368 29.6653 15.312C29.1373 16.24 28.4093 16.968 27.4813 17.496C26.5533 18.024 25.5213 18.288 24.3853 18.288ZM24.3853 15.624C25.1853 15.624 25.8813 15.328 26.4733 14.736C27.0653 14.128 27.3613 13.232 27.3613 12.048C27.3613 10.864 27.0653 9.976 26.4733 9.384C25.8813 8.776 25.1933 8.472 24.4093 8.472C23.5933 8.472 22.8893 8.776 22.2973 9.384C21.7213 9.976 21.4333 10.864 21.4333 12.048C21.4333 13.232 21.7213 14.128 22.2973 14.736C22.8893 15.328 23.5853 15.624 24.3853 15.624ZM33.228 18V0.719999H36.3V18H33.228ZM39.4389 18V0.719999H42.5109V18H39.4389ZM51.3618 18.288C50.2098 18.288 49.1698 18.024 48.2418 17.496C47.3298 16.968 46.6018 16.24 46.0578 15.312C45.5298 14.368 45.2658 13.28 45.2658 12.048C45.2658 10.816 45.5378 9.736 46.0818 8.808C46.6258 7.864 47.3538 7.128 48.2658 6.6C49.1938 6.072 50.2338 5.808 51.3858 5.808C52.5218 5.808 53.5458 6.072 54.4578 6.6C55.3858 7.128 56.1138 7.864 56.6418 8.808C57.1858 9.736 57.4578 10.816 57.4578 12.048C57.4578 13.28 57.1858 14.368 56.6418 15.312C56.1138 16.24 55.3858 16.968 54.4578 17.496C53.5298 18.024 52.4978 18.288 51.3618 18.288ZM51.3618 15.624C52.1618 15.624 52.8578 15.328 53.4498 14.736C54.0418 14.128 54.3378 13.232 54.3378 12.048C54.3378 10.864 54.0418 9.976 53.4498 9.384C52.8578 8.776 52.1698 8.472 51.3858 8.472C50.5698 8.472 49.8658 8.776 49.2738 9.384C48.6978 9.976 48.4098 10.864 48.4098 12.048C48.4098 13.232 48.6978 14.128 49.2738 14.736C49.8658 15.328 50.5618 15.624 51.3618 15.624ZM65.1245 18.288C64.0685 18.288 63.1405 18.12 62.3405 17.784C61.5405 17.432 60.9005 16.952 60.4205 16.344C59.9405 15.736 59.6525 15.032 59.5565 14.232H62.6525C62.7485 14.696 63.0045 15.096 63.4205 15.432C63.8525 15.752 64.4045 15.912 65.0765 15.912C65.7485 15.912 66.2365 15.776 66.5405 15.504C66.8605 15.232 67.0205 14.92 67.0205 14.568C67.0205 14.056 66.7965 13.712 66.3485 13.536C65.9005 13.344 65.2765 13.16 64.4765 12.984C63.9645 12.872 63.4445 12.736 62.9165 12.576C62.3885 12.416 61.9005 12.216 61.4525 11.976C61.0205 11.72 60.6685 11.4 60.3965 11.016C60.1245 10.616 59.9885 10.128 59.9885 9.552C59.9885 8.496 60.4045 7.608 61.2365 6.888C62.0845 6.168 63.2685 5.808 64.7885 5.808C66.1965 5.808 67.3165 6.136 68.1485 6.792C68.9965 7.448 69.5005 8.352 69.6605 9.504H66.7565C66.5805 8.624 65.9165 8.184 64.7645 8.184C64.1885 8.184 63.7405 8.296 63.4205 8.52C63.1165 8.744 62.9645 9.024 62.9645 9.36C62.9645 9.712 63.1965 9.992 63.6605 10.2C64.1245 10.408 64.7405 10.6 65.5085 10.776C66.3405 10.968 67.1005 11.184 67.7885 11.424C68.4925 11.648 69.0525 11.992 69.4685 12.456C69.8845 12.904 70.0925 13.552 70.0925 14.4C70.1085 15.136 69.9165 15.8 69.5165 16.392C69.1165 16.984 68.5405 17.448 67.7885 17.784C67.0365 18.12 66.1485 18.288 65.1245 18.288ZM76.9179 18.288C75.8939 18.288 75.0539 18.128 74.3979 17.808C73.7419 17.472 73.2539 17.032 72.9339 16.488C72.6139 15.944 72.4539 15.344 72.4539 14.688C72.4539 13.584 72.8859 12.688 73.7499 12C74.6139 11.312 75.9099 10.968 77.6379 10.968H80.6619V10.68C80.6619 9.864 80.4299 9.264 79.9659 8.88C79.5019 8.496 78.9259 8.304 78.2379 8.304C77.6139 8.304 77.0699 8.456 76.6059 8.76C76.1419 9.048 75.8539 9.48 75.7419 10.056H72.7419C72.8219 9.192 73.1099 8.44 73.6059 7.8C74.1179 7.16 74.7739 6.672 75.5739 6.336C76.3739 5.984 77.2699 5.808 78.2619 5.808C79.9579 5.808 81.2939 6.232 82.2699 7.08C83.2459 7.928 83.7339 9.128 83.7339 10.68V18H81.1179L80.8299 16.08C80.4779 16.72 79.9819 17.248 79.3419 17.664C78.7179 18.08 77.9099 18.288 76.9179 18.288ZM77.6139 15.888C78.4939 15.888 79.1739 15.6 79.6539 15.024C80.1499 14.448 80.4619 13.736 80.5899 12.888H77.9739C77.1579 12.888 76.5739 13.04 76.2219 13.344C75.8699 13.632 75.6939 13.992 75.6939 14.424C75.6939 14.888 75.8699 15.248 76.2219 15.504C76.5739 15.76 77.0379 15.888 77.6139 15.888ZM86.6655 18V0.719999H89.7375V18H86.6655ZM94.1964 18.168C93.6364 18.168 93.1724 17.992 92.8044 17.64C92.4524 17.288 92.2764 16.864 92.2764 16.368C92.2764 15.856 92.4524 15.424 92.8044 15.072C93.1724 14.72 93.6364 14.544 94.1964 14.544C94.7564 14.544 95.2124 14.72 95.5644 15.072C95.9324 15.424 96.1164 15.856 96.1164 16.368C96.1164 16.864 95.9324 17.288 95.5644 17.64C95.2124 17.992 94.7564 18.168 94.1964 18.168Z" fill="white"/>
</svg>
